<?xml version="1.0" encoding="UTF-8" standalone="no"?> <svg xmlns="http://www.w3.org/2000/svg" viewBox="0 0 90 90"><defs><style>.cls-1{fill:#073349;}.cls-2{fill:#ffb600;}.cls-3{fill:#ffd400;}.cls-4{fill:#bc350c;}.cls-5{fill:#e84505;}.cls-6{fill:#d7ebf4;}.cls-7{fill:#bfd7e2;}.cls-8{fill:#93afbc;}.cls-9{fill:#2892c7;}.cls-10{fill:#27d6ff;}.cls-11{fill:#349dd1;}.cls-12{fill:#aac7d1;}</style></defs><title>rocket</title><g id="rocket"><g id="rocket-2" data-name="rocket"><circle id="back" class="cls-1" cx="45" cy="45" r="42.5"/><g id="rocket-3" data-name="rocket"><path class="cls-2" d="M32.94,54.82a5.73,5.73,0,0,0-6.23,1.38c-3.34,3.34-3.06,10.49-3.06,10.49s7.21.21,10.49-3.07a5.74,5.74,0,0,0,1.38-6.23Z"/><path class="cls-3" d="M32,56.7a3.64,3.64,0,0,0-4,.87c-2.12,2.12-1.95,6.67-1.95,6.67s4.58.14,6.67-2a3.65,3.65,0,0,0,.88-4Z"/><path class="cls-4" d="M48.86,51.67c4.06,3.45-4.12,13.22-7.75,17.17a.82.82,0,0,1-1.41-.61c.2-2.84.36-7.46-.5-8.94C37.66,56.63,46.51,49.68,48.86,51.67Z"/><path class="cls-5" d="M38.67,41.48c-3.45-4.06-13.22,4.12-17.17,7.75a.82.82,0,0,0,.61,1.41c2.84-.2,7.46-.36,8.94.5C33.71,52.68,40.66,43.82,38.67,41.48Z"/><path class="cls-6" d="M58.94,31.4a44.74,44.74,0,0,0-7.17-6L29.89,52.46a1,1,0,0,0,0,1.36l3.32,3.31Z"/><path class="cls-7" d="M33.21,57.13l3.34,3.34a1,1,0,0,0,1.35,0L65,38.58s-1.35-2.46-6.07-7.18Z"/><path class="cls-4" d="M65.92,37.07C70.18,29.35,67.36,23,67.36,23l-7.27,7.27A49.29,49.29,0,0,1,65.92,37.07Z"/><path class="cls-5" d="M60.09,30.25,67.36,23a17.56,17.56,0,0,0-14.08,1.51,51.93,51.93,0,0,1,6.81,5.76Z"/><path class="cls-8" d="M58.94,31.4l1.16-1.16a51.93,51.93,0,0,0-6.81-5.76c-.5.27-1,.57-1.51.9A51.52,51.52,0,0,1,58.94,31.4Z"/><path class="cls-8" d="M58.94,31.4A47.83,47.83,0,0,1,65,38.58c.34-.51.64-1,.91-1.51a49.29,49.29,0,0,0-5.83-6.82Z"/><path class="cls-2" d="M31.28,69.89a.82.82,0,1,0,.82-.82.82.82,0,0,0-.82.82"/><path class="cls-2" d="M26.54,71.4a.82.82,0,1,0,.82-.82.82.82,0,0,0-.82.82"/><path class="cls-2" d="M35.19,66.71a.82.82,0,1,0,.82-.82.82.82,0,0,0-.82.82"/><path class="cls-2" d="M20.45,59.05a.82.82,0,1,1,.82-.82.82.82,0,0,1-.82.82"/><path class="cls-2" d="M18.94,63.8a.82.82,0,1,1,.82-.82.82.82,0,0,1-.82.82"/><path class="cls-2" d="M23.63,55.15a.82.82,0,1,1,.82-.82.82.82,0,0,1-.82.82"/><circle class="cls-9" cx="51.6" cy="38.74" r="5.31" transform="translate(-12.28 47.83) rotate(-45)"/><path class="cls-10" d="M48.6,41.74a4.25,4.25,0,0,1,6-6"/><path class="cls-11" d="M54.61,35.73a4.25,4.25,0,1,1-6,6"/><rect class="cls-12" x="27.53" y="56.21" width="11.18" height="2.03" transform="translate(50.16 -6.66) rotate(45)"/><path class="cls-5" d="M28.49,61.84c-.8-.8.84-3.73,3.65-6.54s5.74-4.45,6.54-3.65"/><path class="cls-4" d="M38.69,51.65c.8.8-.84,3.73-3.65,6.54s-5.74,4.45-6.54,3.65"/></g></g></g></svg>